<?xml version="1.0" encoding="UTF-8" standalone="no"?>
<svg
   version="1.2"
   viewBox="0 0 1545.8882 1937.0166"
   width="1545.8882"
   height="1937.0166"
   id="svg25"
   xmlns="http://www.w3.org/2000/svg"
   xmlns:svg="http://www.w3.org/2000/svg">
  <title
     id="title1">logo-epita-svg</title>
  <defs
     id="defs20">
    <clipPath
       clipPathUnits="userSpaceOnUse"
       id="cp1">
      <path
         d="M 0,0 H 1545 V 1046.59 H 0 Z"
         id="path1" />
    </clipPath>
    <linearGradient
       id="g1"
       x2="1"
       gradientUnits="userSpaceOnUse"
       gradientTransform="matrix(0,-843.147,1141.787,0,974.107,910.998)">
      <stop
         offset="0"
         stop-color="#004563"
         id="stop1" />
      <stop
         offset=".16"
         stop-color="#005c82"
         id="stop2" />
      <stop
         offset=".43"
         stop-color="#007dad"
         id="stop3" />
      <stop
         offset=".66"
         stop-color="#0095cd"
         id="stop4" />
      <stop
         offset=".86"
         stop-color="#00a4e0"
         id="stop5" />
      <stop
         offset="1"
         stop-color="#00a9e7"
         id="stop6" />
    </linearGradient>
    <clipPath
       clipPathUnits="userSpaceOnUse"
       id="cp2">
      <path
         d="m -20.13,-20.64 h 818.4 V 1073.9 h -818.4 z"
         id="path6" />
    </clipPath>
    <linearGradient
       id="g2"
       x2="1"
       gradientUnits="userSpaceOnUse"
       gradientTransform="matrix(0,1046.592,-795.845,0,397.923,0)">
      <stop
         offset="0"
         stop-color="#004563"
         id="stop7" />
      <stop
         offset=".04"
         stop-color="#004e6f"
         id="stop8" />
      <stop
         offset=".17"
         stop-color="#006a94"
         id="stop9" />
      <stop
         offset=".31"
         stop-color="#0081b2"
         id="stop10" />
      <stop
         offset=".45"
         stop-color="#0093c9"
         id="stop11" />
      <stop
         offset=".61"
         stop-color="#009fda"
         id="stop12" />
      <stop
         offset=".78"
         stop-color="#00a7e4"
         id="stop13" />
      <stop
         offset="1"
         stop-color="#00a9e7"
         id="stop14" />
    </linearGradient>
    <linearGradient
       id="g3"
       x2="1"
       gradientUnits="userSpaceOnUse"
       gradientTransform="matrix(0,-771.78,1334.837,0,781.482,780.966)">
      <stop
         offset="0"
         stop-color="#004563"
         id="stop15" />
      <stop
         offset=".16"
         stop-color="#005c82"
         id="stop16" />
      <stop
         offset=".43"
         stop-color="#007dad"
         id="stop17" />
      <stop
         offset=".66"
         stop-color="#0095cd"
         id="stop18" />
      <stop
         offset=".86"
         stop-color="#00a4e0"
         id="stop19" />
      <stop
         offset="1"
         stop-color="#00a9e7"
         id="stop20" />
    </linearGradient>
  </defs>
  <style
     id="style20">
		.s0 { fill: url(#g1) } 
		.s1 { fill: url(#g2) } 
		.s2 { fill: url(#g3) } 
		.s3 { fill: #ffffff } 
	</style>
  <g
     id="g25"
     clip-path="url(#cp1)"
     transform="translate(0,478.93265)">
    <g
       id="g24">
      <path
         id="Layer"
         class="s0"
         d="M 403.2,911 1545,617.2 813.7,67.9 Z"
         style="fill:url(#g1)" />
      <g
         id="g23">
        <g
           id="Clip-Path"
           clip-path="url(#cp2)">
          <g
             id="g20">
            <path
               id="path20"
               class="s1"
               d="M 0,485.8 795.8,1046.6 750.6,0 Z"
               style="fill:url(#g2)" />
          </g>
        </g>
        <g
           id="g21">
          <path
             id="path21"
             class="s2"
             d="M 1133.8,9.2 1448.9,781 H 114.1 Z"
             style="fill:url(#g3)" />
        </g>
        <path
           id="path22"
           fill-rule="evenodd"
           class="s3"
           d="m 1127.7,622.2 -19.1,48.9 h -57.7 l 142.6,-370.7 142.4,370.9 h -57.6 l -18.7,-49 z m 20.4,-53.9 h 90.8 L 1193.5,450.4 Z M 845.2,314.5 h 230.6 v 55.7 H 987.4 V 667.9 H 933.6 V 370.3 h -88.4 z m -100.6,-4.1 h 53.9 V 669.8 H 744.6 Z M 544.9,594.2 v 75.9 h -53.8 v -356 h 57.8 c 37.4,-0.4 73.3,14.2 99.9,40.6 26.5,26.3 41.4,62.1 41.4,99.4 0,37.4 -14.9,73.2 -41.4,99.5 -26.6,26.4 -62.5,41 -99.9,40.6 z m -0.1,-53.3 h 4.1 c 5.7,0.1 11.4,-0.4 17,-1.4 5.6,-1.1 11.1,-2.7 16.4,-4.9 5.3,-2.2 10.3,-4.9 15,-8.1 4.7,-3.2 9.1,-6.9 13.1,-11 12.2,-12.2 20.4,-27.7 23.8,-44.5 3.3,-16.9 1.6,-34.4 -5,-50.3 -6.5,-15.9 -17.7,-29.4 -32,-39 -14.3,-9.5 -31.1,-14.6 -48.3,-14.6 h -4.1 z M 260.6,316.3 h 163.8 v 53.8 H 314.6 v 96 H 424.4 V 520 H 314.6 v 96.2 h 109.7 v 53.6 H 260.6 Z" />
        <path
           id="path23"
           fill-rule="evenodd"
           class="s3"
           d="m 1333.9,718.7 h -19.2 v 8.9 h 17 v 5.4 h -17 v 8.9 h 19.4 v 5.2 h -25.5 v -33.9 h 25.2 z m -34.5,13.7 c 0.2,2 0,4 -0.6,6 -0.6,1.9 -1.7,3.6 -3.1,5.1 -1.4,1.4 -3.1,2.6 -5,3.3 -1.9,0.7 -3.9,1 -5.9,0.8 -2,0.2 -4,-0.1 -5.9,-0.8 -1.8,-0.7 -3.5,-1.8 -4.9,-3.2 -1.4,-1.4 -2.4,-3.2 -3.1,-5 -0.6,-1.9 -0.8,-3.9 -0.6,-5.9 v -19.5 h 6 v 19.3 c 0,6.2 3.2,9.6 8.5,9.6 5.4,0 8.6,-3.1 8.6,-9.4 v -19.5 h 5.9 z m -36.4,11.4 -3.8,4.3 -4.1,-3.7 c -6.6,4.7 -15.6,4.2 -21.7,-1.1 -6.1,-5.3 -7.8,-14.2 -4.1,-21.4 3.8,-7.2 12,-10.9 19.8,-9 7.9,2 13.5,9 13.5,17.1 q 0,1.5 -0.2,2.8 -0.3,1.4 -0.7,2.8 -0.4,1.3 -1.1,2.5 -0.6,1.3 -1.5,2.4 z m -18.2,-8.4 3.8,-4.4 6,5.3 q 0.4,-0.7 0.8,-1.5 0.3,-0.7 0.5,-1.5 0.2,-0.9 0.3,-1.7 0.1,-0.8 0.1,-1.7 c 0.1,-1.5 -0.2,-3.1 -0.8,-4.5 -0.5,-1.4 -1.4,-2.8 -2.4,-3.9 -1.1,-1.1 -2.4,-2 -3.8,-2.6 -1.4,-0.6 -3,-0.9 -4.5,-0.9 -1.6,0 -3.1,0.3 -4.5,0.9 -1.4,0.6 -2.7,1.5 -3.8,2.6 -1.1,1.1 -1.9,2.5 -2.4,3.9 -0.6,1.5 -0.8,3 -0.7,4.5 -0.1,1.6 0.1,3.2 0.7,4.7 0.5,1.4 1.3,2.8 2.4,3.9 1.1,1.2 2.4,2.1 3.8,2.7 1.5,0.6 3,1 4.6,1 q 0.8,0 1.5,-0.1 0.8,-0.1 1.5,-0.3 0.8,-0.2 1.5,-0.6 0.7,-0.3 1.3,-0.7 z m -32.3,-22.2 h 6 v 33.9 h -6 z m -18.5,34 h -6 v -28.4 h -10.8 v -5.6 h 27.6 v 5.6 H 1194 Z m -17,0 h -6.3 l -3.4,-8.2 h -16 l -3.5,8.2 h -6 l 14.9,-34.2 h 5.5 z m -17.5,-27 -5.9,13.6 h 11.7 z m -41.2,18.6 h -0.2 L 1107.4,723 v 24.2 h -6 v -33.9 h 6.4 l 10.4,15.9 10.3,-15.9 h 6.4 v 33.9 h -6 v -24.3 z m -31.1,8.3 -8.4,-12 h -7.4 v 12 h -6 v -33.9 h 15.1 c 7.8,0 12.6,4.1 12.6,10.7 q 0,1.8 -0.5,3.5 -0.6,1.7 -1.7,3.2 -1.1,1.4 -2.6,2.3 -1.5,1 -3.3,1.3 l 9.2,12.9 z m -7.2,-28.5 h -8.6 V 730 h 8.7 c 4.3,0 7,-2.2 7,-5.7 -0.1,-3.8 -2.7,-5.7 -7.1,-5.7 z m -24.2,18.3 c -0.9,2.1 -2.2,4.1 -3.9,5.7 -1.6,1.7 -3.6,3 -5.8,3.8 -2.2,0.9 -4.5,1.3 -6.8,1.2 -7.2,0 -13.7,-4.4 -16.4,-11 -2.7,-6.6 -1.2,-14.3 3.9,-19.3 5.1,-5.1 12.8,-6.6 19.4,-3.8 6.6,2.8 10.9,9.3 10.8,16.5 0.1,2.4 -0.3,4.7 -1.2,6.9 z m -5,-6.9 c 0,-1.5 -0.2,-3.1 -0.8,-4.5 -0.5,-1.5 -1.4,-2.8 -2.5,-3.9 -1,-1.1 -2.3,-2 -3.7,-2.6 -1.5,-0.6 -3,-0.9 -4.5,-1 -1.6,0.1 -3.1,0.4 -4.5,1 -1.5,0.6 -2.7,1.5 -3.8,2.6 -1.1,1.1 -1.9,2.4 -2.4,3.9 -0.6,1.4 -0.8,3 -0.8,4.5 0,1.6 0.2,3.1 0.8,4.6 0.5,1.4 1.4,2.8 2.4,3.9 1.1,1.1 2.4,2 3.8,2.7 1.5,0.6 3,0.9 4.6,0.9 1.5,0 3,-0.3 4.4,-0.9 1.5,-0.6 2.7,-1.5 3.8,-2.6 1.1,-1.1 1.9,-2.5 2.5,-3.9 0.5,-1.5 0.7,-3 0.7,-4.5 z m -35,-11.4 h -19.3 v 9.3 h 17 v 5.3 h -17.1 v 13.9 h -6 v -33.9 h 25.2 z m -41,-5.5 h 6 V 747 h -5 L 957.1,722.9 V 747 h -6 v -33.9 h 5.6 l 18.1,23.4 z m -39.9,0 h 6 v 34 h -6 z m -31.4,0 h 6 V 747 h -5 L 885.8,722.9 V 747 h -6 v -33.9 h 5.6 l 18.1,23.5 z m -32.2,5.5 h -19.1 v 8.9 h 17 v 5.4 h -17 v 8.9 h 19.4 v 5.2 h -25.4 v -33.9 h 25.1 z m -67.8,3.5 c 0,2.7 1.5,3.8 8,5.4 7.2,1.7 10.9,4.3 10.9,10 0,6.4 -4.8,10.1 -11.9,10.1 q -2,0.1 -3.9,-0.3 -1.9,-0.4 -3.7,-1 -1.8,-0.7 -3.5,-1.8 -1.6,-1 -3.1,-2.3 l 3.6,-4.3 q 1.1,1.1 2.3,1.9 1.2,0.8 2.6,1.4 1.4,0.5 2.8,0.8 1.5,0.3 3,0.3 c 3.6,0 5.9,-1.8 5.9,-4.2 0,-2.5 -1.3,-3.8 -7.6,-5.3 -7.2,-1.7 -11.3,-4.2 -11.3,-10.1 0.1,-1.4 0.4,-2.8 1,-4.1 0.7,-1.3 1.5,-2.5 2.6,-3.4 1.1,-0.9 2.4,-1.6 3.7,-2 1.4,-0.4 2.9,-0.6 4.3,-0.4 q 1.6,0 3.3,0.2 1.6,0.3 3.2,0.8 1.6,0.6 3.1,1.4 1.4,0.8 2.7,1.9 l -3.2,4.5 q -1,-0.8 -2.1,-1.4 -1,-0.7 -2.2,-1.1 -1.2,-0.5 -2.4,-0.7 -1.3,-0.3 -2.5,-0.3 c -3.5,0 -5.5,1.8 -5.5,4.1 z m -19.4,24.9 -8.4,-12 h -7.4 v 12 h -6 v -33.9 h 15.1 c 7.8,0 12.6,4.1 12.6,10.8 q 0.1,1.8 -0.5,3.5 -0.6,1.7 -1.7,3.1 -1.1,1.4 -2.6,2.3 -1.5,1 -3.3,1.4 l 9.2,12.8 z M 784,724.2 c 0,-3.7 -2.7,-5.7 -7.1,-5.7 h -8.6 V 730 h 8.7 c 4.2,0 7,-2.2 7,-5.7 z m -31.1,8.2 c 0.3,2 0.1,4 -0.6,5.9 -0.6,1.9 -1.6,3.7 -3,5.1 -1.4,1.5 -3.1,2.6 -5,3.3 -1.9,0.8 -3.9,1 -6,0.9 -1.9,0.1 -3.9,-0.1 -5.8,-0.8 -1.8,-0.7 -3.5,-1.8 -4.9,-3.3 -1.4,-1.4 -2.4,-3.1 -3.1,-5 -0.6,-1.9 -0.8,-3.9 -0.6,-5.8 v -19.6 h 6 v 19.3 c 0,6.3 3.3,9.7 8.6,9.7 5.3,0 8.5,-3.2 8.5,-9.4 v -19.6 h 6 z m -36.8,-13.7 h -19.2 v 9 H 714 v 5.3 h -17.1 v 9 h 19.5 v 5.1 H 691 v -33.9 h 25 z m -41.3,-5.5 h 6 v 33.9 h -6 z m -16,0 h 6 v 34 h -5 L 641.1,723 v 24.2 h -6 v -34 h 5.5 l 18.2,23.5 z m -48.2,-2.8 5.2,-8 5.3,2.4 -6,5.6 z m 16.1,8.3 h -19.2 v 8.9 h 17 v 5.4 h -16.9 v 8.9 H 627 v 5.2 h -25.4 v -33.9 h 25 z m -37.2,25.9 q -1.6,1 -3.4,1.7 -1.9,0.7 -3.8,1 -1.9,0.4 -3.8,0.4 c -2.3,0.1 -4.7,-0.3 -6.8,-1.2 -2.2,-0.8 -4.2,-2.1 -5.8,-3.7 -1.7,-1.7 -3,-3.6 -3.8,-5.8 -0.9,-2.2 -1.3,-4.5 -1.2,-6.8 0,-2.3 0.4,-4.6 1.3,-6.8 0.8,-2.1 2.1,-4.1 3.7,-5.7 1.7,-1.7 3.6,-3 5.8,-3.8 2.1,-0.9 4.4,-1.3 6.7,-1.3 q 1.8,-0.1 3.5,0.2 1.8,0.2 3.5,0.8 1.7,0.6 3.2,1.5 1.5,0.9 2.9,2.1 l -3.9,4.5 q -0.9,-0.9 -2,-1.6 -1.1,-0.7 -2.3,-1.2 -1.3,-0.4 -2.5,-0.6 -1.3,-0.3 -2.6,-0.2 c -3.1,0.3 -5.9,1.7 -8,4 -2,2.3 -3.1,5.2 -3,8.3 0,3.1 1.3,6 3.4,8.2 2.1,2.2 5,3.5 8.1,3.6 q 1.1,0.1 2.2,-0.1 1.1,-0.2 2.1,-0.5 1,-0.3 2,-0.8 1,-0.5 1.9,-1.1 v -6.4 h -8.7 v -5.2 h 14.5 v 14.3 q -1.5,1.3 -3.2,2.2 z m -42.7,-31.4 h 5.9 v 33.9 h -5 L 529,722.9 v 24.2 h -5.9 v -33.9 h 5.5 l 18.2,23.4 z m -39.9,0 h 6 v 33.9 h -6 z m -12.8,6.7 h -2.4 v -6.7 h 6.4 v 5.7 c 0.1,1 0,2.1 -0.3,3.1 -0.3,1 -0.8,1.9 -1.5,2.7 -0.7,0.8 -1.6,1.4 -2.6,1.8 -1,0.3 -2,0.5 -3.1,0.4 l -0.6,-2.5 c 3,-0.5 4.4,-2 4.1,-4.5 z m -11.4,17 c -0.9,2.2 -2.2,4.1 -3.9,5.7 -1.7,1.6 -3.7,2.8 -5.8,3.6 -2.2,0.8 -4.5,1.2 -6.8,1 h -12.7 v -33.9 h 12.7 c 2.3,-0.1 4.6,0.2 6.7,1 2.2,0.8 4.2,2 5.9,3.6 1.7,1.6 3,3.5 3.9,5.6 0.9,2.1 1.4,4.4 1.4,6.7 0,2.3 -0.5,4.6 -1.4,6.7 z m -5.6,-11.2 c -0.6,-1.5 -1.5,-2.8 -2.6,-3.9 -1.1,-1.1 -2.4,-1.9 -3.9,-2.5 -1.4,-0.5 -3,-0.7 -4.5,-0.6 h -6.7 v 23 h 6.7 c 1.6,0.1 3.1,-0.1 4.6,-0.6 1.4,-0.6 2.8,-1.4 3.9,-2.5 1.1,-1.1 2,-2.4 2.5,-3.8 0.6,-1.5 0.9,-3 0.8,-4.6 0,-1.5 -0.3,-3.1 -0.8,-4.5 z m -47.5,-7 h -19.2 v 9 h 17 v 5.3 h -17 v 9 h 19.5 v 5.2 h -25.4 v -33.9 h 25 z m -56.1,-5.5 h 6 v 28.4 h 17.9 v 5.5 h -23.9 z m -9.6,23.8 c -0.9,2.2 -2.2,4.1 -3.9,5.8 -1.7,1.6 -3.7,2.9 -5.9,3.8 -2.2,0.8 -4.5,1.2 -6.9,1.1 -7.2,-0.1 -13.6,-4.5 -16.3,-11.1 -2.6,-6.7 -1,-14.3 4.1,-19.3 5.1,-5 12.7,-6.5 19.3,-3.7 6.6,2.8 10.9,9.3 10.9,16.5 0,2.3 -0.4,4.7 -1.3,6.9 z m -5,-6.9 c 0,-1.6 -0.2,-3.1 -0.8,-4.5 -0.5,-1.5 -1.4,-2.8 -2.5,-3.9 -1,-1.1 -2.3,-2 -3.8,-2.6 -1.4,-0.6 -2.9,-1 -4.5,-1 -1.5,0 -3,0.3 -4.4,1 -1.5,0.6 -2.8,1.5 -3.8,2.6 -1.1,1.1 -1.9,2.4 -2.5,3.9 -0.5,1.4 -0.7,3 -0.7,4.5 0,1.6 0.2,3.1 0.8,4.6 0.5,1.4 1.3,2.8 2.4,3.9 1.1,1.1 2.4,2 3.8,2.7 1.5,0.6 3,0.9 4.6,0.9 1.5,0 3,-0.3 4.5,-0.9 1.4,-0.6 2.7,-1.5 3.7,-2.6 1.1,-1.2 1.9,-2.5 2.5,-3.9 0.5,-1.5 0.8,-3 0.7,-4.6 z m -53.7,16.6 c -6.9,-2.6 -11.5,-9.2 -11.6,-16.6 0,-7.3 4.4,-14 11.3,-16.7 6.8,-2.7 14.7,-0.9 19.6,4.5 l -3.8,4.5 q -0.9,-1 -2,-1.8 -1.1,-0.8 -2.3,-1.3 -1.2,-0.6 -2.5,-0.9 -1.4,-0.3 -2.7,-0.3 c -3.2,0 -6.3,1.3 -8.5,3.5 -2.3,2.3 -3.5,5.4 -3.5,8.5 0,3.2 1.2,6.3 3.5,8.6 2.2,2.2 5.3,3.5 8.5,3.5 q 1.4,0 2.7,-0.3 1.4,-0.3 2.6,-0.9 1.3,-0.5 2.4,-1.4 1.1,-0.8 2.1,-1.8 l 3.8,3.9 c -4.9,5.6 -12.7,7.5 -19.6,5 z m -34.4,-36.2 5.2,-8 5.3,2.4 -6,5.6 z m 16.1,8.2 h -19.2 v 9 h 17 v 5.3 h -17 v 9 h 19.4 v 5.2 h -25.4 v -33.9 h 25.2 z" />
      </g>
    </g>
  </g>
  <rect
     style="opacity:0;fill:#000000;stroke-width:1.36104"
     id="rect25"
     width="1545.8882"
     height="1937.0166"
     x="0"
     y="0" />
</svg>
