<?xml version="1.0" encoding="UTF-8" standalone="no"?>
<svg
   viewBox="0 0 80349.573 6847.5625"
   version="1.1"
   id="svg1"
   sodipodi:docname="inria.svg"
   inkscape:export-filename="inria2.svg"
   inkscape:export-xdpi="96"
   inkscape:export-ydpi="96"
   width="80349.57"
   height="6847.5625"
   xmlns:inkscape="http://www.inkscape.org/namespaces/inkscape"
   xmlns:sodipodi="http://sodipodi.sourceforge.net/DTD/sodipodi-0.dtd"
   xmlns="http://www.w3.org/2000/svg"
   xmlns:svg="http://www.w3.org/2000/svg">
  <sodipodi:namedview
     id="namedview1"
     pagecolor="#ffffff"
     bordercolor="#000000"
     borderopacity="0.25"
     inkscape:showpageshadow="2"
     inkscape:pageopacity="0.0"
     inkscape:pagecheckerboard="0"
     inkscape:deskcolor="#d1d1d1" />
  <defs
     id="defs1">
    <style
       id="style1">.cls-1{fill:#e53516;}</style>
  </defs>
  <title
     id="title1">inr_logo_rouge</title>
  <g
     id="Calque_2"
     data-name="Calque 2"
     transform="translate(0,0.83863903)">
    <g
       id="Calque_1-2"
       data-name="Calque 1">
      <path
         class="cls-1"
         d="M 56.72,10.71 A 58.93,58.93 0 0 0 68.17,1.62 c 2.8,-2.84 -9.52,-1.57 -12.49,1 a 82.94,82.94 0 0 0 -9.47,9.25 c -1.75,2.01 6.67,1.13 10.51,-1.16 z m 225.34,63.93 c 2.19,1.32 2.1,-5.53 -2.31,-8.28 -15.79,-9.83 -59,7.31 -75.35,9.26 -3.07,0.37 -4.19,-0.41 -3.46,-2.49 1.39,-4 6.86,-11.4 8,-13.94 1.14,-2.54 0.9,-10.78 -11.45,-10.78 -10.09,0 -19.34,4.69 -25.85,10.59 -6.2,5.28 -18.21,15.74 -25.6,15.74 -7.66,0 14.76,-23.12 16,-24.29 3.33,-3.13 -7.18,-2.35 -11.59,1 -1.76,1.34 -8.81,8.88 -13.22,16.18 -12.74,8.81 -25.43,10.85 -19.4,3.53 3.21,-3.91 8.65,-9.14 12.38,-13.28 5.22,-5.78 4.27,-9.59 -7.24,-9.59 -15.41,0 -17.05,1.34 -25.74,11.53 -1.61,1.89 -0.78,6.64 0.89,5 10.43,-10.32 10.19,-9.48 24,-9.48 -2.22,2.36 -6.18,4.71 -12.89,13.23 -6,7.6 -2.07,13.74 6.43,13.74 4.69,0 11.71,-2.2 18.12,-6.72 -0.77,4 0.82,6.8 6.87,6.8 7,0 15,-4.17 21.64,-8.81 -0.83,5 1.76,8.81 9.17,8.81 5.71,0 12.36,-2.25 19.22,-8.19 0,4.54 3.17,8.15 9.14,8.15 14.51,0 64.76,-18.25 82.24,-7.71 z m -106.73,1.2 c -9.54,0 9.57,-21.8 22,-21.8 7.46,-0.04 -12.8,21.8 -22,21.8 z M 167.77,42.12 A 98,98 0 0 0 182.51,30.5 c 2.8,-2.85 -9.52,-1.58 -12.49,0.95 a 122.22,122.22 0 0 0 -11.5,11.14 c -1.75,2.05 5.4,1.84 9.25,-0.47 z M 92.45,65.34 C 88.72,69 80.54,75.1 73.39,75.1 c -5.29,0 5.24,-9.48 10.46,-17.11 5,-7.3 0.91,-9.48 -3.2,-9.48 -10.18,0 -20.13,7.14 -26.87,12.17 C 55.82,58 59,54.45 62.37,50 c 1.87,-2.48 -9.35,-1.59 -12.22,2.19 -0.92,1.2 -1.93,2.54 -3,4 -9.74,11.68 -24.46,19.58 -31.68,19.58 -4,0 -5.49,-2.78 -3,-8 6,-12.64 26.84,-36.64 38.15,-47.15 5.14,-4.81 -10.29,-2.85 -13.83,0.7 C 21.14,37.08 5.37,54.68 0.92,68.37 -1.54,76 0.73,82.75 10.14,82.75 c 7.72,0 16.28,-3.83 23.55,-8.37 -1.79,2.44 -3.42,4.62 -4.69,6.43 -2.05,2.78 8.35,1.77 10.54,-1 8.23,-10.52 28,-23.46 33.48,-23.46 5,0 -12.23,12.92 -12.07,20.83 0.2,10.39 24.26,4 32.42,-6.67 1.23,-1.69 0.24,-6.29 -0.92,-5.17 z"
         id="path1" />
    </g>
  </g>
</svg>
