<?xml version="1.0" encoding="UTF-8" standalone="no"?>
<svg
   width="484"
   height="505.47931"
   version="1.1"
   viewBox="0 0 484 505.4793"
   id="svg7"
   sodipodi:docname="thales.svg"
   xmlns:inkscape="http://www.inkscape.org/namespaces/inkscape"
   xmlns:sodipodi="http://sodipodi.sourceforge.net/DTD/sodipodi-0.dtd"
   xmlns="http://www.w3.org/2000/svg"
   xmlns:svg="http://www.w3.org/2000/svg">
  <defs
     id="defs7" />
  <sodipodi:namedview
     id="namedview7"
     pagecolor="#ffffff"
     bordercolor="#000000"
     borderopacity="0.25"
     inkscape:showpageshadow="2"
     inkscape:pageopacity="0.0"
     inkscape:pagecheckerboard="0"
     inkscape:deskcolor="#d1d1d1" />
  <title
     id="title1">Thales Group logo</title>
  <style
     type="text/css"
     id="style1">.logoSt2{fill:#2C2F73;}
	.logoSt4{fill:#5EBFD4;}</style>
  <path
     class="logoSt2"
     d="m 484,405.10001 c 0,7.8 -2.3,10.1 -8.5,12 -6.7,2 -18.6,3.3 -25.7,3.3 -8.4,0 -18.9,-0.5 -27.8,-2.6 v -9 h 49.3 v -12.3 h -34.9 c -10.5,0 -14.4,-2.9 -14.4,-13.1 v -5.4 c 0,-8.1 2.4,-10.5 8.9,-12.2 6.6,-1.7 17.4,-2.8 24.5,-2.8 8.6,0 18.9,0.7 27.8,2.7 v 9 h -48.5 v 10.3 h 34.9 c 10.5,0 14.4,2.8 14.4,13.1 z"
     id="path1" />
  <path
     class="logoSt2"
     d="m 400,417.70001 c -10.2,2 -20.5,2.6 -30.5,2.6 -10,0 -20.4,-0.6 -30.7,-2.6 v -52 c 10.2,-2 20.6,-2.7 30.5,-2.7 10,0 20.1,0.6 30.3,2.7 v 9.3 h -46.2 v 10.4 h 30.1 v 10.8 h -30.1 v 12.3 h 46.4 v 9.2 z"
     id="path2" />
  <path
     class="logoSt2"
     d="m 321,417.70001 c -9.2,2 -18.4,2.6 -27.3,2.6 -8.9,0 -18.3,-0.5 -27.5,-2.6 v -53.4 h 14.7 v 43.5 H 321 Z"
     id="path3" />
  <path
     class="logoSt2"
     d="m 249,418.10001 c -4.9,1.4 -11.4,1.9 -16.2,2 l -22.7,-45.8 h -1.3 l -22.6,45.8 c -4.8,-0.1 -10.5,-0.6 -15.4,-2 l 28.7,-53.7 H 220 Z"
     id="path4" />
  <path
     class="logoSt4"
     d="m 219,404.40001 c 0,5.3 -4.3,9.5 -9.6,9.5 -5.3,0 -9.5,-4.3 -9.5,-9.5 0,-5.3 4.3,-9.5 9.5,-9.5 5.3,0 9.6,4.2 9.6,9.5"
     id="path5" />
  <path
     class="logoSt2"
     d="m 153,418.10001 c -4.7,1.4 -9.7,1.8 -14.7,1.9 v -23.3 h -36.5 v 23.3 c -5,-0.1 -10,-0.6 -14.7,-1.9 v -52.8 c 4.7,-1.4 9.7,-1.8 14.7,-1.9 v 22.5 h 36.5 v -22.5 c 5,0.1 10,0.6 14.7,1.9 z"
     id="path6" />
  <path
     class="logoSt2"
     d="M 66.2,375.10001 H 40.4 v 44 H 25.8 v -44 H 0 v -9.4 c 11.1,-2 22.3,-2.7 33.1,-2.7 10.8,0 22,0.6 33.1,2.7 z"
     id="path7" />
  <rect
     style="opacity:0;fill:#000000;stroke-width:2.94324"
     id="rect7"
     width="484"
     height="505.47931"
     x="0"
     y="9.6497224e-06"
     inkscape:export-filename="thales.svg"
     inkscape:export-xdpi="96"
     inkscape:export-ydpi="96" />
</svg>
